<svg xmlns="http://www.w3.org/2000/svg" height="20" width="20" fill="currentColor" class="text-white"><path d="M10.771 2.042q2.875.291 4.896 2.312t2.312 4.896h-5.583q-.229-.562-.646-.979-.417-.417-.979-.646Zm1.5 1.854v2.812q.291.23.562.48.271.25.479.562h2.813q-.5-1.354-1.5-2.354t-2.354-1.5Zm-3-1.854v5.583q-.771.292-1.261.927-.489.636-.489 1.448 0 .812.489 1.458.49.646 1.261.917v5.583q-3.104-.312-5.177-2.583Q2.021 13.104 2.021 10t2.073-5.385q2.073-2.282 5.177-2.573Zm-1.5 1.854q-1.917.75-3.083 2.406Q3.521 7.958 3.521 10q0 2.062 1.167 3.719 1.166 1.656 3.083 2.385v-2.812q-.792-.584-1.271-1.438Q6.021 11 6.021 10T6.5 8.146q.479-.854 1.271-1.438Zm4.625 6.854h5.583q-.291 2.875-2.312 4.896t-4.896 2.312v-5.583q.562-.229.989-.646.428-.417.636-.979Zm.916 1.5q-.208.312-.468.573-.261.26-.573.469v2.812q1.354-.5 2.354-1.5t1.5-2.354ZM6.021 10Zm7.291-2.25Zm0 4.5Z"></path></svg>